# xmcd
#
# Track frame offsets:
#	150
#	12005
#	24830
#	38432
#	52025
#	65275
#	79837
#	93138
#	105181
#	118396
#	132266
#	146533
#	160294
#	172949
#	185671
#	197708
#	211494
#	225159
#	237623
#	251070
#	263644
#
# Disc length: 3668 seconds
#
# Revision: 1
# Processed by: cddbd v1.5.2PL0 Copyright (c) Steve Scherf et al.
# Submitted via: audiograbber 1.83.01
#
DISCID=100e5215
DTITLE=Sonny Boy Williamson - Blues Archive 12_CD2
DYEAR=1940
DGENRE=Blues
TTITLE0=She Was A Dreamer (1941) 
TTITLE1=Decoration Day Blues No. 2 (1940)
TTITLE2=Western Union Man (1941)
TTITLE3=Springtime Blues (1941)
TTITLE4=War Time Blues (1940)
TTITLE5=Sloppy Drunk Blues (1941)
TTITLE6=Shotgun Blues (1941)
TTITLE7=New Early in the Morning (1940)
TTITLE8=You Got To Step Back (1941)
TTITLE9=Drink On Little Girl (1941)
TTITLE10=My Baby Made A Change (1941)
TTITLE11=Million Years Blues (1941)
TTITLE12=I've been Dealing With The Devil (1940)
TTITLE13=Broken Heart Blues (1941)
TTITLE14=She don't love me that way (1941)
TTITLE15=Cool And Iceman Blues (1941)
TTITLE16=Springtime Blues (1941)
TTITLE17=I'm Gonna Catch You Soon (1941)
TTITLE18=Blues That Made Me Drunk (1942)
TTITLE19=Come On Baby And Take A Walk (1942)
TTITLE20=Mellow Chick Swing (1947)
EXTD=
EXTT0=
EXTT1=
EXTT2=
EXTT3=
EXTT4=
EXTT5=
EXTT6=
EXTT7=
EXTT8=
EXTT9=
EXTT10=
EXTT11=
EXTT12=
EXTT13=
EXTT14=
EXTT15=
EXTT16=
EXTT17=
EXTT18=
EXTT19=
EXTT20=by cml Ledeburgh 2018
PLAYORDER=
